HIERARCHY
ROOT SpineBase
{
  OFFSET 0.000000 0.000000 0.000000
  CHANNELS 6 Xposition Yposition Zposition Zrotation Xrotation Yrotation
  JOINT SpineMid
  {
    OFFSET -0.000000 30.666751 0.000000
    CHANNELS 3 Zrotation Xrotation Yrotation
    JOINT SpineShoulder
    {
      OFFSET 0.353839 22.846286 -0.528413
      CHANNELS 3 Zrotation Xrotation Yrotation
      JOINT Neck
      {
        OFFSET 0.244050 7.573151 -0.434916
        CHANNELS 3 Zrotation Xrotation Yrotation
        JOINT Head
        {
          OFFSET 3.714356 13.145507 -1.067272
          CHANNELS 3 Zrotation Xrotation Yrotation
          End Site
          {
            OFFSET 0 0 0
          }
        }
      }
      JOINT ShoulderLeft
      {
        OFFSET -12.988761 -1.689995 -7.879243
        CHANNELS 3 Zrotation Xrotation Yrotation
        JOINT ElbowLeft
        {
          OFFSET -6.331991 -25.274925 -4.251320
          CHANNELS 3 Zrotation Xrotation Yrotation
          JOINT WristLeft
          {
            OFFSET 1.957979 -20.195903 -4.796466
            CHANNELS 3 Zrotation Xrotation Yrotation
            JOINT HandLeft
            {
              OFFSET 1.084452 -5.714064 -0.082630
              CHANNELS 3 Zrotation Xrotation Yrotation
              JOINT HandTipLeft
              {
                OFFSET 0.847464 -7.951780 -1.247513
                CHANNELS 3 Zrotation Xrotation Yrotation
                End Site
                {
                  OFFSET 0 0 0
                }
              }
              JOINT ThumbLeft
              {
                OFFSET -2.798652 0.650507 -2.100803
                CHANNELS 3 Zrotation Xrotation Yrotation
                End Site
                {
                  OFFSET 0 0 0
                }
              }
            }
          }
        }
      }
      JOINT ShoulderRight
      {
        OFFSET 15.738358 -2.279227 9.846581
        CHANNELS 3 Zrotation Xrotation Yrotation
        JOINT ElbowRight
        {
          OFFSET 3.782553 -26.064786 7.681588
          CHANNELS 3 Zrotation Xrotation Yrotation
          JOINT WristRight
          {
            OFFSET 2.078886 -21.523572 1.530810
            CHANNELS 3 Zrotation Xrotation Yrotation
            JOINT HandRight
            {
              OFFSET 1.290921 -8.671428 1.797783
              CHANNELS 3 Zrotation Xrotation Yrotation
              JOINT HandTipRight
              {
                OFFSET 1.025720 -7.944122 0.050770
                CHANNELS 3 Zrotation Xrotation Yrotation
                End Site
                {
                  OFFSET 0 0 0
                }
              }
              JOINT ThumbRight
              {
                OFFSET 4.021514 4.603519 -0.503942
                CHANNELS 3 Zrotation Xrotation Yrotation
                End Site
                {
                  OFFSET 0 0 0
                }
              }
            }
          }
        }
      }
    }
  }
  JOINT HipLeft
  {
    OFFSET -5.097032 1.424880 -6.741961
    CHANNELS 3 Zrotation Xrotation Yrotation
    JOINT KneeLeft
    {
      OFFSET -0.260588 -33.923414 -13.944223
      CHANNELS 3 Zrotation Xrotation Yrotation
      JOINT AnkleLeft
      {
        OFFSET -4.800617 -37.359903 -0.363187
        CHANNELS 3 Zrotation Xrotation Yrotation
        JOINT FootLeft
        {
          OFFSET 2.531746 -7.215546 -9.073600
          CHANNELS 3 Zrotation Xrotation Yrotation
          End Site
          {
            OFFSET 0 0 0
          }
        }
      }
    }
  }
  JOINT HipRight
  {
    OFFSET 7.393725 0.168025 0.326476
    CHANNELS 3 Zrotation Xrotation Yrotation
    JOINT KneeRight
    {
      OFFSET -3.437309 -34.932307 -0.749952
      CHANNELS 3 Zrotation Xrotation Yrotation
      JOINT AnkleRight
      {
        OFFSET -9.454244 -38.385002 10.379418
        CHANNELS 3 Zrotation Xrotation Yrotation
        JOINT FootRight
        {
          OFFSET 3.710163 -7.579369 -2.635527
          CHANNELS 3 Zrotation Xrotation Yrotation
          End Site
          {
            OFFSET 0 0 0
          }
        }
      }
    }
  }
}
MOTION
Frames: 9
Frame Time: 0.033333
-120.626276 80.728653 342.129177 0.000000 0.000000 -29.505233 -0.000000 -0.000000 29.505233 -0.000000 0.000000 0.000000 -0.000000 0.000000 0.000000 0.000000 0.000000 0.000000 -0.000000 0.000000 0.000000 -0.000000 0.000000 0.000000 -0.000000 0.000000 0.000000 -0.000000 0.000000 0.000000 0.000000 0.000000 0.000000 0.000000 0.000000 0.000000 -0.000000 0.000000 0.000000 -0.000000 0.000000 0.000000 -0.000000 0.000000 0.000000 -0.000000 0.000000 0.000000 0.000000 0.000000 0.000000 0.000000 0.000000 0.000000 -0.000000 -0.000000 29.505233 -0.000000 0.000000 0.000000 -0.000000 0.000000 0.000000 0.000000 0.000000 0.000000 -0.000000 -0.000000 29.505233 -0.000000 0.000000 0.000000 -0.000000 0.000000 0.000000 0.000000 0.000000 0.000000
-119.599459 81.111847 342.233146 -0.779421 0.308465 -34.187758 0.818061 0.182811 34.188551 -0.000000 0.000000 0.000000 -1.773960 2.477540 -0.803712 0.000000 0.000000 0.000000 -0.971862 0.303495 0.089784 -1.249299 -1.677516 0.272197 -1.089325 2.799375 0.017593 1.401841 -3.991011 -0.343523 0.000000 0.000000 0.000000 0.000000 0.000000 0.000000 -1.433309 1.868929 -0.128661 1.590110 -0.815678 0.291412 0.793020 2.588493 0.614780 -0.990919 -3.626373 -0.772767 0.000000 0.000000 0.000000 0.000000 0.000000 0.000000 3.764959 0.449491 33.113823 2.384894 3.834815 0.507618 -2.446014 -1.574422 -2.575531 0.000000 0.000000 0.000000 3.581383 0.390603 34.259201 -2.472837 2.182069 -0.269830 5.134226 17.202809 6.113811 0.000000 0.000000 0.000000
-118.424538 81.408701 342.043257 -1.364046 0.565458 -38.443059 0.171425 -0.139512 38.411802 0.059628 -0.122631 -0.044785 -1.934417 4.798050 -1.464039 0.000000 0.000000 0.000000 -0.404481 0.493430 0.184097 -2.413423 -3.186191 0.505384 -1.960716 5.023508 0.150474 2.678306 -7.209419 -0.702079 0.000000 0.000000 0.000000 0.000000 0.000000 0.000000 -1.368798 3.291449 -0.111765 2.872833 -1.377882 0.578336 1.342192 4.892909 1.120993 -0.753385 -5.671642 -1.206231 0.000000 0.000000 0.000000 0.000000 0.000000 0.000000 6.730452 1.042673 36.505553 4.537859 6.950498 0.592013 -4.265272 -2.617897 -4.999693 0.000000 0.000000 0.000000 6.846781 0.993530 38.566772 -5.126183 4.423863 -0.547669 8.725531 31.083572 10.325400 0.000000 0.000000 0.000000
-117.101511 81.619215 341.559509 -1.755741 0.771535 -42.264180 0.252086 -0.154256 42.226305 0.097541 -0.170338 -0.056368 -2.658358 7.303656 -2.125659 0.000000 0.000000 0.000000 -0.507238 0.933543 0.152376 -3.447162 -4.504140 0.714120 -2.651060 6.650467 0.315745 3.841684 -9.664231 -1.020096 0.000000 0.000000 0.000000 0.000000 0.000000 0.000000 -1.996761 4.627632 -0.096070 3.841148 -1.713554 0.835053 1.627938 6.859352 1.521167 -0.976578 -7.572039 -1.598585 0.000000 0.000000 0.000000 0.000000 0.000000 0.000000 9.022980 1.593271 39.654012 6.348826 9.312695 0.456617 -5.422877 -3.076316 -7.225683 0.000000 0.000000 0.000000 9.774167 1.641247 42.421517 -7.887286 6.735319 -0.797377 11.423308 40.507877 13.060030 0.000000 0.000000 0.000000
-115.630380 81.743390 340.781901 -1.956248 0.927262 -45.664215 0.321320 -0.136945 45.624262 0.141390 -0.209335 -0.060291 -3.205197 9.851242 -2.764986 0.000000 0.000000 0.000000 -0.557462 1.502997 0.039887 -4.322582 -5.621277 0.914841 -3.191296 7.680425 0.452026 4.917949 -11.375281 -1.259255 0.000000 0.000000 0.000000 0.000000 0.000000 0.000000 -2.585739 5.755016 -0.051215 4.494570 -1.852973 1.040856 1.634462 8.450001 1.815753 -1.057727 -8.732089 -1.827751 0.000000 0.000000 0.000000 0.000000 0.000000 0.000000 10.758832 1.955048 42.575509 7.768351 10.953095 0.249874 -5.941906 -2.936044 -9.228421 0.000000 0.000000 0.000000 12.359715 2.183318 45.856055 -10.704941 9.115340 -0.987390 13.858426 46.422204 14.775103 0.000000 0.000000 0.000000
-114.011143 81.781225 339.710435 -1.967055 1.033148 -48.667196 0.374967 -0.091129 48.628921 0.191283 -0.239780 -0.056362 -3.566456 12.420997 -3.404117 0.000000 0.000000 0.000000 -0.559767 2.202343 -0.155378 -5.026731 -6.537131 1.123413 -3.605398 8.126404 0.519360 5.939262 -12.362114 -1.397940 0.000000 0.000000 0.000000 0.000000 0.000000 0.000000 -3.135118 6.674901 0.012076 4.838177 -1.825507 1.180379 1.348606 9.640255 2.001337 -0.982767 -9.085479 -1.875198 0.000000 0.000000 0.000000 0.000000 0.000000 0.000000 12.039350 2.011595 45.309177 8.793782 11.936855 0.062123 -5.874417 -2.204360 -11.001319 0.000000 0.000000 0.000000 14.609443 2.493784 48.925323 -13.549317 11.553531 -1.088958 16.431000 49.901443 15.751989 0.000000 0.000000 0.000000
-112.684568 81.586013 338.422472 -2.042719 0.894408 -51.832668 0.353186 -0.001825 51.793576 0.158208 -0.343192 -0.056920 -3.097151 16.400605 -4.345131 0.000000 0.000000 0.000000 -0.616531 3.365617 -0.353724 -5.863239 -7.065733 1.465951 -4.607096 8.034255 0.483212 8.923300 -13.867627 -1.577433 0.000000 0.000000 0.000000 0.000000 0.000000 0.000000 -3.307406 7.908647 0.169568 4.865167 -1.239807 1.285404 0.982899 10.059826 2.102665 -1.143298 -7.631076 -1.728787 0.000000 0.000000 0.000000 0.000000 0.000000 0.000000 12.932077 2.318505 48.263807 9.542653 11.714626 0.143674 -5.338558 0.420439 -12.599723 0.000000 0.000000 0.000000 17.752914 2.872396 52.166746 -17.480470 15.789874 -1.040023 19.247329 51.710176 17.008467 0.000000 0.000000 0.000000
-110.522439 81.424858 336.596482 -1.553014 0.859444 -54.177297 0.375988 0.104808 54.149186 0.316245 -0.192402 -0.028617 -3.258707 18.893285 -5.111928 0.000000 0.000000 0.000000 -0.612773 4.278098 -0.788233 -6.485657 -7.752497 1.751870 -6.019815 6.784935 0.271145 10.314491 -11.238550 -1.163503 0.000000 0.000000 0.000000 0.000000 0.000000 0.000000 -3.940213 8.182195 0.223181 4.469919 -0.204226 1.305396 -0.565586 8.566418 1.630729 -0.155617 -5.450366 -0.963867 0.000000 0.000000 0.000000 0.000000 0.000000 0.000000 13.525883 1.061142 50.972206 9.920228 11.687930 -0.018343 -3.928682 3.247205 -13.849646 0.000000 0.000000 0.000000 19.347609 2.015726 54.861728 -20.654289 18.940242 -0.813985 24.175548 52.259125 16.543685 0.000000 0.000000 0.000000
-107.995116 81.306955 334.465624 -0.628192 0.844943 -55.607614 1.052062 0.041140 55.611869 -0.000000 0.000000 0.000000 -3.287410 21.383669 -5.796300 0.000000 0.000000 0.000000 -0.232990 5.876850 -1.409480 -6.740437 -8.371274 2.033004 -5.335283 6.088536 0.186581 10.946378 -9.742586 -1.066011 0.000000 0.000000 0.000000 0.000000 0.000000 0.000000 -4.374345 8.460561 0.271380 3.940683 0.668208 1.207674 -2.601093 7.502502 1.020648 -0.677043 -3.404957 -0.406848 0.000000 0.000000 0.000000 0.000000 0.000000 0.000000 13.575466 -1.377189 53.313625 10.157321 11.460005 -0.363774 -2.163642 4.191641 -15.161646 0.000000 0.000000 0.000000 18.700900 0.610924 56.710571 -22.646416 19.420305 -0.730752 30.398584 51.237396 14.168615 0.000000 0.000000 0.000000
